<svg xmlns="http://www.w3.org/2000/svg" width="222.521" height="74.065" viewBox="0 0 222.521 74.065"><defs><style>.a{fill:#fff;stroke-linejoin:round;}.a,.e{stroke:#45413c;}.b{fill:#333;opacity:0.15;isolation:isolate;}.c{fill:#f0d5a8;}.d{fill:#debb7e;}.e,.m{fill:none;}.e,.k{stroke-miterlimit:10;}.f{fill:#4acfff;}.g{fill:#80ddff;}.h{fill:#00b8f0;}.i{fill:#45403c;}.j{fill:#009fd9;}.k{fill:#ff6242;stroke:#45403c;}.l{stroke:none;}</style></defs><g transform="translate(-77.5 -292.435)"><g transform="translate(-110.853 40.5)"><path class="a" d="M375.094,258.461a4.486,4.486,0,0,0-1.626.314,7.5,7.5,0,0,0-14.825,0,4.515,4.515,0,1,0-1.627,8.725h18.078a4.52,4.52,0,1,0,0-9.039Z"/></g><path class="a" d="M234.094,316.461a4.486,4.486,0,0,0-1.626.314,7.5,7.5,0,0,0-14.825,0,4.515,4.515,0,1,0-1.627,8.725h18.078a4.52,4.52,0,1,0,0-9.039Z" transform="translate(-110.853 40.5)"/><g transform="translate(-110.853 40.5)"><path class="a" d="M207.621,263a3.721,3.721,0,0,0-1.351.261,6.233,6.233,0,0,0-12.313,0,3.747,3.747,0,1,0-1.351,7.239h15.015a3.75,3.75,0,1,0,0-7.5Z"/></g><g transform="translate(-110.853 40.5)"><path class="a" d="M405.621,300.993a3.721,3.721,0,0,0-1.351.261,6.232,6.232,0,0,0-12.313,0,3.75,3.75,0,1,0-1.351,7.246h15.015a3.753,3.753,0,0,0,0-7.507Z" transform="translate(1 5)"/></g><g transform="translate(-110.5 -834)"><path class="b" d="M293.5,1191.223c0,1.194,6.182,2.166,14,2.166s14-.972,14-2.166-6.182-2.166-14-2.166S293.5,1190.03,293.5,1191.223Z"/><path class="c" d="M0,0H10a0,0,0,0,1,0,0V20a3,3,0,0,1-3,3H3a3,3,0,0,1-3-3V0A0,0,0,0,1,0,0Z" transform="translate(302.5 1168)"/><path class="d" d="M302.5,1168h10v4a13.567,13.567,0,0,0-10,4Z"/><g class="e" transform="translate(302.5 1168)"><path class="l" d="M0,0H10a0,0,0,0,1,0,0V20a3,3,0,0,1-3,3H3a3,3,0,0,1-3-3V0A0,0,0,0,1,0,0Z"/><path class="m" d="M1,.5H9a.5.5,0,0,1,.5.5V20A2.5,2.5,0,0,1,7,22.5H3A2.5,2.5,0,0,1,.5,20V1A.5.5,0,0,1,1,.5Z"/></g><path class="f" d="M271,1168.5V1141a13.515,13.515,0,0,1,13.5-13.5h38A13.515,13.515,0,0,1,336,1141v25.5a2,2,0,0,1-2,2Z"/><path class="g" d="M336,1141v6a13.52,13.52,0,0,0-13.5-13.5H295.8a14.053,14.053,0,0,0-8.13-6H322.5A13.52,13.52,0,0,1,336,1141Z"/><path class="h" d="M271,1168v-27.3a13.5,13.5,0,0,1,27,.3v27Z"/><path class="i" d="M284.5,1128.024a13.177,13.177,0,0,1,13,13.317v26.635h-26v-26.942a13.18,13.18,0,0,1,13-13.01Zm0-1.024a14.148,14.148,0,0,0-14,14.034V1169h28v-27.659A14.215,14.215,0,0,0,284.5,1127Z"/><path class="j" d="M284.5,1128a13.027,13.027,0,0,0-13,12.7l26,26.3v-26A13.015,13.015,0,0,0,284.5,1128Z"/><line class="k" x1="18.5" transform="translate(309 1141.5)"/><g class="k" transform="translate(304.5 1138.5)"><circle class="l" cx="3" cy="3" r="3"/><circle class="m" cx="3" cy="3" r="2.5"/></g><g class="k" transform="translate(322.5 1141)"><rect class="l" width="7" height="8" rx="1"/><rect class="m" x="0.5" y="0.5" width="6" height="7" rx="0.5"/></g><path class="i" d="M322.5,1127h-38a14.041,14.041,0,0,0-14,14v27H260a.5.5,0,0,0,0,1h74.5a2.006,2.006,0,0,0,2-2v-26A14.041,14.041,0,0,0,322.5,1127Zm13,40a1,1,0,0,1-1,1h-63v-27a13.012,13.012,0,0,1,13-13h38a13.012,13.012,0,0,1,13,13Z"/></g></g></svg>