<svg xmlns="http://www.w3.org/2000/svg" xmlns:xlink="http://www.w3.org/1999/xlink" width="114" height="114" viewBox="0 0 114 114">
  <defs>
    <style>.a{fill:#fff;stroke:#707070;}.b{clip-path:url(#a);}.c{fill:#32305d;}.d{fill:#ffba00;}.e{fill:#ff9400;}.f{fill:#ff7100;}</style>
    <clipPath id="a">
      <rect class="a" width="114" height="114" transform="translate(131 50)" />
    </clipPath>
  </defs>
  <g class="b" transform="translate(-131 -50)">
    <g transform="translate(143.687 50.004)">
      <path class="c" d="M88.316,83.388,73.347,23.368a10.309,10.309,0,0,0-12.495-7.512L30.845,23.368a10.206,10.206,0,0,0-4.6,2.529A10.309,10.309,0,0,0,23.4,30.6a10.481,10.481,0,0,0-.371,2.5,10.241,10.241,0,0,0,.3,2.749l19.244,77.1a1.375,1.375,0,0,0,2.46.454l7.285-10.4,28.5-7.107a10.309,10.309,0,0,0,7.491-12.515ZM72.632,81.546c0,6.742-3.629,10.014-11.086,10.014H50.062a15.45,15.45,0,0,1-5.993-1.024,1.168,1.168,0,0,1-.687-.784L39.065,72.8H50.3l2.433,9.56a1.12,1.12,0,0,0,1.086.852h4.007a3.945,3.945,0,0,0,2.687-.687,3.522,3.522,0,0,0,.8-2.674V65.484a3.494,3.494,0,0,0-.8-2.667,3.838,3.838,0,0,0-2.687-.722H49.21c-7.024,0-10.44-3.313-10.44-10.124V35.478c0-6.735,3.588-10.014,11-10.014H61.45a15.333,15.333,0,0,1,5.794.969,1.113,1.113,0,0,1,.687.756l3.808,15.423H60.481l-1.835-7.4A1.869,1.869,0,0,0,56.838,33.8h-3.23a4.287,4.287,0,0,0-2.8.687,3.5,3.5,0,0,0-.8,2.667v13.54a3.494,3.494,0,0,0,.8,2.667,4.112,4.112,0,0,0,2.8.687h8.364c7.175,0,10.66,3.244,10.66,9.911Z" />
      <path class="d" d="M.419,36.742H16.914v5.5H.419Z" transform="matrix(0.97, -0.242, 0.242, 0.97, -9.299, 3.272)" />
      <path class="e" d="M3.3,17.5H19.794V23H3.3Z" transform="translate(12.076 -3.051) rotate(31)" />
      <path class="f" d="M18.942,5.918H35.437v5.5H18.942Z" transform="matrix(0.242, 0.97, -0.97, 0.242, 29.024, -19.814)" />
    </g>
  </g>
</svg>